<svg xmlns="http://www.w3.org/2000/svg" viewBox="0 0 512 512">
  <rect width="512" height="512" fill="#0a0a0a"/>
  <g transform="translate(256,256) scale(1) translate(-256,-268)">
  <path fill="#F5F1E8" d="M256,120
    C282,122 334,150 334,210
    C334,244 328,258 328,282
    C328,312 396,330 396,392
    C396,446 332,478 256,478
    C180,478 116,446 116,392
    C116,330 184,312 184,282
    C184,258 178,244 178,210
    C178,150 230,122 256,120 Z"/>
  <path fill="#F5F1E8" d="M250,132
    C293,131 326,101 332,58
    C289,59 256,89 250,132 Z"/>
</g>
</svg>
